<svg width="106" height="97" viewBox="0 0 106 97" fill="none" xmlns="http://www.w3.org/2000/svg">
<g id="earth-environment-care-icon 1" clip-path="url(#clip0_213_671)">
<g id="Group">
<path id="Vector" d="M57.2875 83.0322H76.1877C77.7059 81.5261 79.3708 79.9598 81.0616 78.3677C84.607 75.0199 88.3076 71.5258 92.1118 67.1538C96.4595 62.1537 96.9253 60.4238 98.2451 55.5269C98.4953 54.6061 98.7714 53.5733 99.1337 52.291L101.394 44.3647L101.42 44.2787C102.627 40.7502 102.722 38.4179 102.222 37.0753C102.067 36.6622 101.868 36.3868 101.635 36.2405C101.454 36.12 101.213 36.077 100.962 36.1028C100.376 36.1631 99.7116 36.5331 99.1078 37.1958L92.3965 53.143C92.3361 53.2893 92.2499 53.427 92.155 53.5475C91.7582 54.2618 91.2233 54.9589 90.5332 55.6216L78.6289 68.8665C77.982 69.5894 76.8692 69.6496 76.1532 69.0042C75.4286 68.3587 75.3682 67.2485 76.0152 66.5342L87.9281 53.2893C87.9799 53.2291 88.0316 53.1688 88.092 53.1172C89.3256 51.9468 89.7137 50.6817 89.4981 49.7608C89.4291 49.4768 89.3083 49.2358 89.1358 49.0723C88.9719 48.926 88.7562 48.8227 88.4888 48.7969C87.4278 48.685 85.8578 49.4682 83.96 51.7144C83.9082 51.7746 83.8478 51.8349 83.7875 51.8951L79.1724 55.9572L79.1465 55.9831C74.1519 60.6992 72.0039 61.818 68.0876 63.8577C67.2681 64.288 66.371 64.7527 65.2582 65.3552C64.8182 65.5961 64.3869 65.8887 63.9642 66.2072C63.5157 66.5514 63.0843 66.9043 62.6789 67.2485C60.6086 68.987 59.5217 70.3984 58.9006 71.9561C58.2536 73.574 58.0207 75.5449 57.7015 78.2472C57.5721 79.3402 57.4772 80.4159 57.3996 81.4917C57.3392 82.0167 57.3134 82.5331 57.2875 83.0322ZM77.5161 26.3951C77.4816 26.8856 77.4644 27.2987 77.4644 27.4881C77.4644 27.9442 77.1452 28.3229 76.7225 28.4261L75.4717 28.8048C75.3768 28.8392 75.2819 28.8564 75.187 28.8564H74.98C74.5401 28.8564 74.1519 28.5552 74.057 28.1421L72.9615 24.8029V24.7857L72.7544 24.1489L70.8998 27.4881C70.8221 27.6344 70.71 27.7376 70.5806 27.8323L69.6144 28.452C69.1659 28.736 68.5793 28.5983 68.2946 28.1507C68.2342 28.0389 68.1825 27.9098 68.148 27.7893L67.1991 22.5051L65.7757 21.4896L62.4287 20.8871C62.5409 21.0593 62.6703 21.2486 62.7738 21.4207C63.3776 22.3416 63.9297 23.1936 64.1195 24.08C64.4214 25.5 63.878 26.6877 61.5144 27.5483C61.5747 27.5913 61.661 27.6258 61.7214 27.686C62.6444 28.4003 62.8601 29.4245 60.8501 32.0665C60.3412 32.7292 59.9012 33.3144 59.5303 33.8222C59.2456 34.2181 58.9782 34.614 58.7194 34.9754L59.1766 38.263C59.237 38.7019 59.1249 39.1322 58.8402 39.5625C58.6332 39.8809 58.314 40.1649 57.8913 40.4317C57.6066 40.6039 57.3651 40.7932 57.1753 40.9825C57.0977 41.06 57.0373 41.1288 56.9683 41.2063L57.1753 42.1357C57.2702 42.5919 57.0373 43.0394 56.6232 43.2115L56.2782 43.3664C56.2178 43.6332 56.1057 43.9086 55.9763 44.1582C55.7692 44.5713 55.4846 44.9844 55.1223 45.3803C54.7255 45.8106 54.2941 46.1204 53.8369 46.3442C53.3452 46.5679 52.8363 46.6884 52.3015 46.6884H50.6193C50.0931 46.6884 49.6704 46.2581 49.6704 45.7417C49.6704 45.3114 49.6273 44.8553 49.5152 44.3647C49.403 43.857 49.2478 43.3234 49.0235 42.7468C48.7733 42.1013 48.5749 41.5161 48.4541 40.9911C48.3075 40.4403 48.2471 39.9498 48.2471 39.5367C48.2471 39.1752 48.2816 38.8396 48.342 38.5556C48.4196 38.2113 48.5318 37.9187 48.7043 37.6692C48.7215 37.6347 48.7388 37.5745 48.7647 37.4454C48.7992 37.2561 48.8078 37.0065 48.8078 36.6881C48.8078 36.4385 48.7647 36.1803 48.6784 35.9135C48.5835 35.6123 48.4369 35.2939 48.2471 34.9496C48.0056 34.5193 47.8158 34.1923 47.7036 33.9169C47.5311 33.5554 47.4362 33.2542 47.4362 33.0304C47.4362 31.4813 46.8928 31.1285 46.1509 31.1285C45.7023 31.1285 45.202 31.1887 44.6758 31.2748C44.0288 31.3694 43.3474 31.4469 42.6745 31.4469C42.1656 31.4469 41.6739 31.2231 41.1994 30.767C40.8544 30.4314 40.4662 29.9408 40.0866 29.3126C39.7416 28.7446 39.4828 28.2798 39.293 27.9356C39.0515 27.4622 38.9307 27.1008 38.9307 26.8426V26.1111C38.8962 23.469 38.8789 20.9646 41.4409 19.1143C42.502 17.6082 43.4595 16.6271 44.5982 16.0161C45.7886 15.3706 47.1171 15.1468 48.9286 15.1468C49.4548 15.1468 49.8775 15.5771 49.8775 16.0935V17.4361L51.0161 17.9438L51.0334 17.8664C51.1455 17.3586 51.6545 17.0316 52.1634 17.1349C52.5085 17.2123 52.8449 17.307 53.1296 17.4017C53.4488 17.5135 53.7162 17.6426 53.9405 17.7975C54.0699 17.875 54.2769 17.9438 54.5443 17.9869C54.829 18.0385 55.1481 18.0471 55.4156 18.0041C55.5622 17.9697 55.6571 17.9438 55.683 17.9094V17.875C55.7175 17.7287 55.7261 17.591 55.7434 17.4447L54.6047 17.5393C54.1906 17.5738 53.8283 17.35 53.673 16.9972C53.2935 16.2054 52.5171 15.8095 51.5165 15.3017C50.4554 14.7596 49.2046 14.1141 47.833 12.8318C43.2611 14.4497 41.8033 14.6649 41.4409 13.658C41.2167 13.0555 41.5358 12.5822 41.9499 11.9453C42.3295 11.3601 42.8557 10.5339 42.8557 9.75938C42.8557 9.34629 43.1231 9.00204 43.494 8.85574L47.3327 7.10008C46.9186 7.02262 46.4097 6.94517 45.987 4.87109C45.9094 4.44078 46.1164 4.03629 46.4787 3.83835C46.7806 3.68344 47.1257 3.45968 47.5397 3.19288C47.9538 2.92609 48.4455 2.55603 49.0148 2.13433L49.0493 2.0999C47.0998 2.40112 45.2106 2.9347 43.4164 3.71786C41.9068 4.36332 40.5093 5.12927 39.2154 5.98128C37.9128 6.8505 36.7051 7.8316 35.6009 8.9418C34.4881 10.052 33.5047 11.2482 32.6335 12.5478C31.7622 13.8473 31.0031 15.2415 30.3648 16.739C30.3648 16.7562 30.3475 16.7734 30.3475 16.7906C29.7264 18.2623 29.252 19.777 28.9328 21.3519C28.6309 22.9784 28.467 24.6222 28.467 26.3176C28.467 28.013 28.6223 29.6568 28.9414 31.2404C28.9587 31.3178 28.9759 31.4125 28.9932 31.4899L33.4185 33.5984C33.7549 33.7534 33.9447 34.0718 33.9619 34.4246C34.0137 35.6897 33.6773 36.6278 33.3236 37.5745C33.0734 38.2888 32.7974 39.0117 32.7715 39.8723C32.7715 39.967 32.7543 40.0445 32.7198 40.1219C33.5738 41.387 34.5399 42.5575 35.6354 43.6332C36.7482 44.7434 37.9473 45.7245 39.2499 46.5937C40.5524 47.463 41.9499 48.2203 43.4509 48.8572C43.4681 48.8572 43.4854 48.8744 43.5026 48.8744C44.9777 49.494 46.5046 49.9674 48.0746 50.2858C49.6618 50.6042 51.3094 50.7591 53.0088 50.7591C54.7082 50.7591 56.3558 50.6042 57.9431 50.2858C59.5476 49.9674 61.083 49.494 62.5581 48.8658C64.0677 48.2203 65.4652 47.4544 66.7591 46.6023C68.0617 45.7331 69.2608 44.752 70.3736 43.6418C71.4864 42.5316 72.4698 41.3354 73.341 40.0358C74.2123 38.7363 74.9714 37.3421 75.6097 35.8447C75.6097 35.8274 75.627 35.8102 75.627 35.8016C76.2481 34.33 76.7225 32.8067 77.0417 31.2404C77.3609 29.6568 77.5161 28.0303 77.5161 26.3348V26.3951ZM42.6831 2.05687C45.9007 0.679887 49.3426 0 52.9916 0C54.8117 0 56.5801 0.172123 58.3054 0.524976C60.0047 0.860616 61.6524 1.37699 63.2569 2.04827C63.2741 2.04827 63.2914 2.06548 63.3086 2.06548C64.9131 2.74536 66.4055 3.57156 67.8116 4.50102C69.2263 5.43049 70.5202 6.51486 71.7106 7.6939C72.9011 8.88155 73.9794 10.1811 74.911 11.5839C75.8599 12.9953 76.6708 14.4928 77.3522 16.0763C78.051 17.6943 78.5599 19.3552 78.905 21.0593C79.25 22.7719 79.4312 24.5448 79.4312 26.3607C79.4312 28.1766 79.2587 29.9408 78.905 31.6621C78.5686 33.3575 78.051 35.0012 77.3781 36.602C77.3781 36.6192 77.3609 36.6364 77.3609 36.6536C76.6794 38.2544 75.8513 39.7432 74.9196 41.146C73.988 42.5575 72.9011 43.8484 71.7193 45.036C70.5288 46.2237 69.2263 47.2994 67.8202 48.2289C66.4055 49.1756 64.9045 49.9846 63.3173 50.6645C61.6955 51.3615 60.0306 51.8693 58.3226 52.2136C56.606 52.5578 54.829 52.7385 53.0088 52.7385C51.1887 52.7385 49.4203 52.5664 47.695 52.2136C45.9956 51.8779 44.348 51.3616 42.7435 50.6903C42.7263 50.6903 42.709 50.6731 42.6918 50.6731C41.0873 49.9932 39.5949 49.167 38.1888 48.2375C36.7741 47.308 35.4802 46.2237 34.2897 45.0446C33.0993 43.857 32.021 42.5574 31.0894 41.1546C30.1405 39.7432 29.3296 38.2458 28.6481 36.6622C27.9494 35.0443 27.4405 33.3833 27.0954 31.6793C26.7504 29.9666 26.5692 28.1938 26.5692 26.3779C26.5692 24.562 26.7417 22.7977 27.0954 21.0765C27.4318 19.3811 27.9494 17.7373 28.6223 16.1365C28.6223 16.1193 28.6395 16.1021 28.6395 16.0849C29.321 14.4842 30.1491 12.9953 31.0808 11.5925C32.0124 10.1811 33.0993 8.89016 34.2811 7.70251C35.4715 6.51486 36.7741 5.43909 38.1802 4.50963C39.5949 3.56295 41.0959 2.75397 42.6831 2.07408V2.05687ZM30.7098 35.9221C30.9169 36.3954 31.1411 36.8688 31.3913 37.3421C31.4431 37.213 31.4689 37.1011 31.5207 36.9807C31.745 36.361 31.9693 35.7586 32.0297 35.0959L30.0283 34.1492C30.2268 34.7517 30.451 35.3369 30.7098 35.9221ZM63.8693 4.60429C62.9808 4.15677 62.0578 3.7695 61.1089 3.43386C57.5549 4.26005 56.537 3.7695 55.3983 3.2101C54.829 2.94331 54.2079 2.64209 52.8449 2.64209H52.034C51.9564 2.64209 51.7839 2.70233 51.5078 2.84864C51.1628 3.03797 50.7142 3.32198 50.188 3.73507C49.6187 4.16538 49.1097 4.54405 48.6353 4.86248C48.3679 5.05181 48.1091 5.20673 47.8762 5.35303C48.3334 5.46491 48.687 5.74891 48.9199 7.86603C48.9717 8.26191 48.7474 8.65779 48.3679 8.82992L44.7534 10.4737C44.5809 11.515 44.0116 12.4015 43.5803 13.0555C43.563 13.0728 43.563 13.09 43.5458 13.09C44.003 12.8232 45.0985 11.8851 47.7295 10.9556C48.0746 10.8007 48.5231 10.8782 48.7906 11.1794C50.0759 12.522 51.3439 13.1588 52.3877 13.6924C53.5005 14.2604 54.4063 14.7251 55.0705 15.689L56.606 15.5427C56.6664 15.5255 56.7181 15.5255 56.7785 15.5255C57.3047 15.5255 57.7274 15.9558 57.7274 16.4722C57.7274 16.7734 57.7102 17.0746 57.6843 17.393C57.6498 17.677 57.6239 17.9783 57.5721 18.2795V18.3139C57.529 18.5635 57.4255 18.8045 57.3047 19.011C56.9683 19.536 56.4162 19.8372 55.7951 19.9577C55.2862 20.0523 54.7341 20.0351 54.2251 19.9577C53.7334 19.8802 53.259 19.7081 52.9226 19.4843C52.8622 19.4327 52.7759 19.3897 52.681 19.3552L52.6293 19.5618C52.612 19.622 52.5948 19.6909 52.5689 19.7511C52.3618 20.2245 51.7925 20.4482 51.3181 20.2417L48.5922 19.054C48.2126 18.9249 47.9538 18.5635 47.9538 18.1504V17.1521C46.9532 17.2123 46.1595 17.4017 45.4781 17.7717C44.5896 18.2451 43.8132 19.0712 42.9074 20.3794C42.847 20.4913 42.7521 20.5859 42.64 20.6634C40.7681 21.9457 40.8026 24.0026 40.8199 26.1713C40.8199 26.6188 40.8371 26.791 40.8371 26.9115C40.8371 26.9631 40.8889 26.9459 40.9924 27.1352C41.1477 27.4536 41.3892 27.8667 41.7084 28.4003C41.993 28.8737 42.2604 29.2265 42.502 29.4417C42.6141 29.5535 42.6745 29.5966 42.6745 29.5966C43.2438 29.5966 43.8477 29.5191 44.417 29.4417C45.0209 29.3642 45.6075 29.2868 46.1423 29.2868C47.9969 29.2868 49.334 29.9666 49.334 33.0821C49.334 33.1423 49.3685 33.0476 49.4116 33.1595C49.5238 33.3833 49.6791 33.6845 49.8861 34.0632C50.1363 34.5193 50.3433 34.9668 50.4899 35.4057C50.6366 35.8619 50.7142 36.3094 50.7142 36.7311C50.7142 37.1442 50.6797 37.5229 50.6193 37.8413C50.5589 38.2372 50.4296 38.5384 50.257 38.788C50.2225 38.8224 50.2053 38.8998 50.1966 38.9945C50.1621 39.1494 50.1449 39.3387 50.1449 39.5797C50.1449 39.8465 50.1966 40.1822 50.2915 40.578C50.4037 41.0083 50.5589 41.5075 50.7832 42.1099C51.0334 42.7554 51.2232 43.3922 51.3526 44.0119C51.413 44.2959 51.4647 44.5627 51.4992 44.8209H52.2928C52.5602 44.8209 52.819 44.7778 53.0347 44.666C53.2762 44.5541 53.5091 44.382 53.7334 44.141C53.975 43.8914 54.1647 43.616 54.2855 43.3492C54.3977 43.1082 54.4753 42.8931 54.4925 42.6693C54.5098 42.3251 54.7341 42.0067 55.0619 41.8604L55.1568 41.8087L55.0274 41.2063C54.9842 40.9653 55.0101 40.7157 55.1568 40.492C55.3465 40.1908 55.6053 39.8895 55.89 39.6228C56.1747 39.356 56.4939 39.0978 56.8562 38.8654C57.0632 38.7191 57.2012 38.6158 57.2875 38.504L56.7958 34.941C56.744 34.7 56.7958 34.4505 56.9424 34.2267C57.2098 33.7964 57.5808 33.2972 57.9862 32.7034C58.4003 32.1354 58.8402 31.533 59.3319 30.8961C60.3929 29.5191 60.5827 29.2007 60.5568 29.1835C60.4964 29.1405 60.3326 29.0716 60.16 28.9941C59.5131 28.7274 58.7971 28.4434 58.4434 27.4709L58.3916 27.3246C58.2795 26.8168 58.6159 26.309 59.1335 26.1971C61.7214 25.655 62.3684 25.087 62.2303 24.4415C62.1182 23.8993 61.661 23.1936 61.1521 22.4276C60.6604 21.6703 60.1341 20.8613 59.7891 19.9921C59.7115 19.82 59.677 19.6134 59.7115 19.4241C59.8064 18.8991 60.298 18.5549 60.8243 18.6495L66.2933 19.6306C66.4227 19.6479 66.5607 19.7081 66.6729 19.7856L68.5275 21.1023C68.7691 21.2486 68.9416 21.481 68.9847 21.765L69.6835 25.6722L72.1075 21.3347C72.2196 21.0937 72.4266 20.9044 72.694 20.8269C73.203 20.672 73.7378 20.956 73.9017 21.4465L74.773 24.1833L75.6097 26.6791C75.6442 26.1541 75.6874 25.4742 75.7823 24.7943C75.8772 24.0972 76.0065 23.4001 76.1618 22.8838C76.2912 22.4879 76.4465 22.1523 76.6535 21.9199C76.5069 21.0162 76.3171 20.1126 76.0669 19.2434C75.765 18.1848 75.3855 17.1521 74.9369 16.1538C74.4797 15.1382 73.9707 14.1743 73.3841 13.2535C72.7976 12.324 72.1765 11.4462 71.495 10.6286C70.7963 9.80241 70.0544 9.02786 69.2608 8.30494C68.4672 7.59063 67.6132 6.92796 66.7074 6.2911C65.8016 5.67146 64.87 5.12066 63.8866 4.63011L63.8693 4.60429ZM57.2788 38.5298V38.4953C57.2788 38.5126 57.2961 38.5556 57.2961 38.547L57.2788 38.5298ZM43.2697 13.09C43.3042 13.1846 43.3819 13.1846 43.5371 13.09H43.2697ZM48.7129 83.0322H29.8041C28.2858 81.5261 26.621 79.9598 24.9302 78.3677C21.3848 75.0199 17.6841 71.5258 13.8799 67.1538C9.53225 62.1537 9.06643 60.4238 7.74661 55.5269C7.49645 54.6061 7.22041 53.5733 6.8581 52.291L4.59801 44.3647L4.57213 44.2787C3.36445 40.7502 3.26956 38.4179 3.76988 37.0753C3.92516 36.6622 4.12356 36.3868 4.35647 36.2405C4.53763 36.12 4.77916 36.077 5.02932 36.1028C5.61591 36.1631 6.28014 36.5331 6.88398 37.1958L13.5952 53.143C13.6556 53.2893 13.7419 53.427 13.8368 53.5475C14.2336 54.2618 14.7684 54.9589 15.4585 55.6216L27.3628 68.8665C28.0098 69.5894 29.1226 69.6496 29.8386 69.0042C30.5632 68.3587 30.6236 67.2485 29.9766 66.5342L18.0809 53.2807C18.0292 53.2205 17.9774 53.1602 17.917 53.1086C16.6835 51.9382 16.2953 50.6731 16.5109 49.7522C16.5799 49.4682 16.7007 49.2272 16.8732 49.0637C17.0371 48.9174 17.2528 48.8141 17.5202 48.7883C18.5812 48.6764 20.1512 49.4596 22.049 51.7058C22.1008 51.766 22.1612 51.8263 22.2302 51.8865L26.8452 55.9486L26.8711 55.9745C31.8658 60.6906 34.0137 61.8094 37.93 63.8491C38.7495 64.2794 39.6467 64.7441 40.7595 65.3466C41.1994 65.5875 41.6307 65.8801 42.0534 66.1986C42.502 66.5428 42.9333 66.8957 43.3387 67.2399C45.409 68.9784 46.496 70.3898 47.1171 71.9475C47.764 73.5654 47.9969 75.5362 48.3161 78.2386C48.4455 79.3316 48.5404 80.4073 48.618 81.4831C48.6612 82.0167 48.687 82.5331 48.7129 83.0322ZM25.4047 83.6346C25.1372 83.9445 24.9733 84.349 24.9733 84.7879V95.2357C24.9733 96.2082 25.767 96.9914 26.7331 96.9914H50.5244C51.4992 96.9914 52.2842 96.1996 52.2842 95.2357V84.6932C52.2842 83.5744 52.2152 82.3695 52.1376 81.2507C52.0599 80.1061 51.9564 78.9701 51.827 77.8427C51.482 74.8908 51.2232 72.7306 50.395 70.6566C49.541 68.5308 48.1695 66.6977 45.6247 64.5548C45.1589 64.1589 44.6844 63.763 44.1841 63.393C43.6579 62.9971 43.0886 62.6184 42.4502 62.2656C41.4151 61.7062 40.4489 61.1984 39.569 60.7337C35.946 58.8403 33.9619 57.8076 29.2951 53.4012C29.2606 53.3668 29.2175 53.3324 29.183 53.3065L24.68 49.3391C21.9283 46.129 19.2368 45.0618 17.1665 45.2856H17.1579C16.1486 45.3889 15.286 45.7848 14.5959 46.3872L10.0498 35.5779H10.0412C9.9722 35.4229 9.88593 35.2766 9.77379 35.1389C8.51435 33.6329 6.91848 32.755 5.39163 32.6001C4.34785 32.4969 3.33857 32.7206 2.45869 33.2886C1.62193 33.8308 0.931831 34.6742 0.500515 35.836C-0.258599 37.8585 -0.241346 40.9997 1.24238 45.3458L3.48522 53.2205C3.81302 54.3565 4.09768 55.4495 4.3651 56.4134C5.83157 61.8783 6.34915 63.8147 11.2403 69.4259C15.1135 73.8753 18.9004 77.4554 22.5407 80.8807C23.4896 81.8187 24.4385 82.7138 25.4047 83.6346ZM28.7689 86.5521C29.0018 86.6038 29.2434 86.6038 29.4849 86.5521H48.7561V93.4887H28.4929V86.5521H28.7689ZM80.5957 83.6346C80.8632 83.9445 81.0271 84.349 81.0271 84.7879V95.2357C81.0271 96.2082 80.2334 96.9914 79.2673 96.9914H55.4846C54.5098 96.9914 53.7248 96.1996 53.7248 95.2357V84.6932C53.7248 84.633 53.7248 84.5641 53.7334 84.5039C53.7593 83.3765 53.8024 82.2835 53.8714 81.2507C53.9491 80.1061 54.0526 78.9701 54.182 77.8427C54.5271 74.8908 54.7858 72.7306 55.614 70.6566C56.468 68.5308 57.8396 66.6977 60.3843 64.5548C60.8501 64.1589 61.3246 63.763 61.8249 63.393C62.3511 62.9971 62.9204 62.6184 63.5588 62.2656C64.5939 61.7062 65.5601 61.1984 66.44 60.7337C70.063 58.8403 72.0471 57.8076 76.7139 53.4012C76.7484 53.3668 76.7915 53.3324 76.826 53.3065L81.329 49.3391C84.0808 46.129 86.7722 45.0618 88.8339 45.2856H88.8425C89.8518 45.3889 90.7144 45.7848 91.4045 46.3872L95.9506 35.5779H95.9592C96.0282 35.4229 96.1145 35.2766 96.2266 35.1389C97.486 33.6329 99.0819 32.755 100.609 32.6001C101.653 32.4969 102.662 32.7206 103.542 33.2886C104.378 33.8308 105.069 34.6742 105.5 35.836C106.259 37.8585 106.242 40.9997 104.758 45.3458L102.515 53.2205C102.187 54.3565 101.903 55.4495 101.635 56.4134C100.169 61.8783 99.6512 63.8147 94.7601 69.4259C90.8869 73.8753 87.1 77.4554 83.4597 80.8807C82.5108 81.8187 81.5619 82.7138 80.5957 83.6346ZM77.2315 86.5521C76.9986 86.6038 76.757 86.6038 76.5155 86.5521H57.2443V93.4887H77.5075V86.5521H77.2315Z" fill="#878BD8"/>
</g>
<rect id="Rectangle 190" x="56.0713" y="86.0615" width="22.4284" height="7.74554" fill="#878BD8"/>
<rect id="Rectangle 191" x="27.6045" y="86.0615" width="22.4284" height="7.74554" fill="#878BD8"/>
</g>
<defs>
<clipPath id="clip0_213_671">
<rect width="106" height="97" fill="white"/>
</clipPath>
</defs>
</svg>
