<svg width="101" height="83" viewBox="0 0 101 83" fill="none" xmlns="http://www.w3.org/2000/svg">
<path d="M98.0049 0H2.9929C1.3399 0 0 1.28465 0 2.86949V60.8123C0 62.3971 1.3399 63.6818 2.9929 63.6818H30.6798L22.7166 82.178L24.7916 83L29.7696 71.4392H71.2315L76.2084 83L78.2845 82.178L70.3214 63.6818H98.0071C99.6601 63.6818 101 62.3971 101 60.8123V2.86949C100.998 1.28465 99.6579 0 98.0049 0ZM70.3034 69.2863H30.6943L33.1082 63.6807H67.8907L70.3034 69.2863ZM98.7534 60.8123C98.7534 61.2082 98.4178 61.5299 98.0049 61.5299H2.9929C2.57993 61.5289 2.24439 61.2072 2.24439 60.8123V2.86949C2.24439 2.47355 2.57993 2.15185 2.9929 2.15185H98.006C98.4178 2.15185 98.7534 2.47355 98.7534 2.86949V60.8123Z" fill="#878BD8"/>
<path d="M72.6971 9.20264H63.0675C62.1451 9.20264 61.6827 10.2721 62.3358 10.8972L65.3276 13.7656L47.8662 30.507L41.7514 24.6443L40.113 23.0735C39.5586 22.5419 38.6597 22.5419 38.1053 23.0735L27.6824 33.0666C27.128 33.5981 27.128 34.46 27.6824 34.9915L29.3208 36.5623C29.8752 37.0938 30.774 37.0938 31.3284 36.5623L39.1086 29.1029L46.8495 36.5247C47.4039 37.0562 48.3028 37.0562 48.8571 36.5247L49.6909 35.7252C49.7336 35.693 49.7784 35.6639 49.8188 35.6252L68.9736 17.2602L71.9654 20.1286C72.6174 20.7538 73.7329 20.3116 73.7329 19.4271V10.1946C73.7317 9.64699 73.2683 9.20264 72.6971 9.20264Z" fill="#878BD8"/>
<path d="M61.1504 27.9136V52.392C61.1504 53.1441 61.7856 53.753 62.57 53.753H67.1036C67.8881 53.753 68.5232 53.1441 68.5232 52.392V20.8438L61.1504 27.9136Z" fill="#878BD8"/>
<path d="M51.5908 37.0772V52.3919C51.5908 53.144 52.226 53.753 53.0104 53.753H57.5441C58.3285 53.753 58.9637 53.144 58.9637 52.3919V30.0073L51.5908 37.0772Z" fill="#878BD8"/>
<path d="M47.8539 39.1519C46.854 39.1519 45.9136 38.7786 45.2066 38.1007L42.0342 35.0591V52.3922C42.0342 53.1443 42.6693 53.7533 43.4538 53.7533H47.9874C48.7719 53.7533 49.407 53.1443 49.407 52.3922V38.8259C48.9256 39.0368 48.3993 39.1519 47.8539 39.1519Z" fill="#878BD8"/>
<path d="M39.1068 32.2539L32.9695 38.1371C32.8158 38.2845 32.6485 38.4146 32.4746 38.533V52.392C32.4746 53.144 33.1098 53.753 33.8942 53.753H38.4279C39.2123 53.753 39.8474 53.144 39.8474 52.392V32.9651L39.1068 32.2539Z" fill="#878BD8"/>
</svg>
