<svg width="116" height="83" viewBox="0 0 116 83" fill="none" xmlns="http://www.w3.org/2000/svg">
<g id="Group">
<g id="Vector">
<path d="M67.1937 34.1458H61.6457C60.8082 34.1458 60.1266 33.6417 60.1266 33.0211V29.8316C60.1266 29.2119 60.8069 28.7069 61.6457 28.7069H67.1937C68.03 28.7069 68.7115 29.2119 68.7115 29.8316C68.7115 30.3547 69.2831 30.7792 69.9901 30.7792C70.6972 30.7792 71.2688 30.3547 71.2688 29.8316C71.2688 28.1668 69.4403 26.8118 67.1937 26.8118H65.6977V25.1924C65.6977 24.6694 65.1262 24.2449 64.4191 24.2449C63.712 24.2449 63.1404 24.6694 63.1404 25.1924V26.8108H61.6457C59.3978 26.8108 57.5693 28.1658 57.5693 29.8307V33.0201C57.5693 34.685 59.3978 36.0399 61.6457 36.0399H67.1937C68.03 36.0399 68.7115 36.545 68.7115 37.1647V40.3541C68.7115 40.9738 68.0313 41.4789 67.1937 41.4789H61.6457C60.8082 41.4789 60.1266 40.9738 60.1266 40.3541C60.1266 39.8311 59.5551 39.4066 58.848 39.4066C58.1422 39.4066 57.5693 39.8311 57.5693 40.3541C57.5693 42.019 59.3978 43.3749 61.6457 43.3749H63.1404V45.2188C63.1404 45.7428 63.712 46.1664 64.4191 46.1664C65.1262 46.1664 65.6977 45.7428 65.6977 45.2188V43.3749H67.1937C69.4403 43.3749 71.2688 42.0199 71.2688 40.3541V37.1647C71.2675 35.4998 69.4403 34.1458 67.1937 34.1458Z" fill="#878BD8"/>
<path d="M67.1937 34.1458H61.6457C60.8082 34.1458 60.1266 33.6417 60.1266 33.0211V29.8316C60.1266 29.2119 60.8069 28.7069 61.6457 28.7069H67.1937C68.03 28.7069 68.7115 29.2119 68.7115 29.8316C68.7115 30.3547 69.2831 30.7792 69.9901 30.7792C70.6972 30.7792 71.2688 30.3547 71.2688 29.8316C71.2688 28.1668 69.4403 26.8118 67.1937 26.8118H65.6977V25.1924C65.6977 24.6694 65.1262 24.2449 64.4191 24.2449C63.712 24.2449 63.1404 24.6694 63.1404 25.1924V26.8108H61.6457C59.3978 26.8108 57.5693 28.1658 57.5693 29.8307V33.0201C57.5693 34.685 59.3978 36.0399 61.6457 36.0399H67.1937C68.03 36.0399 68.7115 36.545 68.7115 37.1647V40.3541C68.7115 40.9738 68.0313 41.4789 67.1937 41.4789H61.6457C60.8082 41.4789 60.1266 40.9738 60.1266 40.3541C60.1266 39.8311 59.5551 39.4066 58.848 39.4066C58.1422 39.4066 57.5693 39.8311 57.5693 40.3541C57.5693 42.019 59.3978 43.3749 61.6457 43.3749H63.1404V45.2188C63.1404 45.7428 63.712 46.1664 64.4191 46.1664C65.1262 46.1664 65.6977 45.7428 65.6977 45.2188V43.3749H67.1937C69.4403 43.3749 71.2688 42.0199 71.2688 40.3541V37.1647C71.2675 35.4998 69.4403 34.1458 67.1937 34.1458Z" stroke="#878BD8"/>
</g>
<path id="Vector_2" d="M105.715 50.2513C108.756 51.3443 111.527 53.2544 113.657 55.8735C114.091 56.4074 114.163 56.974 113.986 57.4935C113.801 58.0377 113.302 58.6301 112.412 59.041L112.411 59.0414C109.858 60.2224 107.314 61.4033 104.798 62.5716L104.798 62.5716C93.8395 67.6604 83.6541 72.3895 75.1985 75.9129C74.1239 76.3607 73.0782 76.7886 72.0634 77.1949C73.1416 76.7594 74.2525 76.301 75.3924 75.8222C83.8296 72.2785 93.9204 67.5929 104.275 62.7849L104.282 62.7815C104.641 62.6148 105 62.4479 105.36 62.2808C107.526 61.2754 109.708 60.2627 111.897 59.2507L111.898 59.2505C112.587 58.9318 113.144 58.399 113.391 57.713C113.648 56.9989 113.527 56.2155 113.017 55.5885L105.715 50.2513ZM105.715 50.2513C108.494 51.3357 111.034 53.1497 113.017 55.588L105.715 50.2513ZM61.5334 14.6115C61.7104 14.5458 61.8774 14.4781 62.0343 14.4085C63.3869 13.8084 63.6215 13.2532 63.618 12.9763L61.5334 14.6115ZM61.5334 14.6115C61.8648 14.4643 62.1395 14.3098 62.3572 14.1504C62.5074 14.0404 62.6573 13.9087 62.7794 13.7519C62.8831 13.6187 63.0636 13.3444 63.0593 12.9704L63.0592 12.9648C63.0535 12.6304 62.897 12.3891 62.815 12.279C62.7157 12.1457 62.598 12.0368 62.4865 11.9496C62.2748 11.7838 62.0041 11.6331 61.6835 11.4996C62.1258 11.6447 62.4816 11.8064 62.7617 11.9725C63.5127 12.4177 63.6158 12.8164 63.618 12.9761L61.5334 14.6115ZM95.8317 48.7698L96.1021 49.4618C95.9454 49.4966 95.789 49.5339 95.633 49.5736L95.2535 48.6035C93.9751 45.3356 93.3757 41.53 92.7879 37.7005L92.7879 37.7003L92.7706 37.5881C92.0172 32.684 91.2484 27.6795 88.9809 23.6875C87.3569 20.8284 84.9889 18.5215 81.434 17.0586C85.3359 18.5298 87.7811 20.8668 89.4265 23.6559C91.7773 27.6406 92.5577 32.6333 93.3505 37.79C93.9439 41.6499 94.5325 45.4436 95.8317 48.7698ZM23.3621 78.5719V78.6754V79.5083V79.8342C23.3621 80.3153 23.0998 80.8341 22.514 81.2682C22.2328 81.4766 21.8895 81.6536 21.4995 81.7814C21.6402 81.7107 21.7738 81.6289 21.8985 81.5366C22.3965 81.1675 22.8061 80.5772 22.8062 79.8352L22.8061 79.827L22.8048 79.6788V79.6749V50.9283V48.8959C22.8048 48.1545 22.3962 47.5641 21.8979 47.1946C21.7696 47.0995 21.6318 47.0156 21.4865 46.9435C21.8819 47.0716 22.2297 47.2503 22.514 47.4609C23.0998 47.8951 23.3621 48.4138 23.3621 48.8949V50.7587V51.725V51.8266V52.6614V77.6075V78.5719ZM2.86473 81.7821C2.47387 81.6543 2.12982 81.4769 1.84815 81.2682C1.26231 80.8341 1 80.3153 1 79.8342V48.8949C1 48.4138 1.26231 47.8951 1.84815 47.4609C2.13283 47.25 2.48122 47.0711 2.87727 46.943C2.73165 47.0152 2.5935 47.0992 2.4649 47.1945C1.96688 47.5636 1.5573 48.1539 1.5573 48.8959V79.8352C1.5573 80.5766 1.96597 81.167 2.46423 81.5364C2.58933 81.6292 2.72347 81.7112 2.86473 81.7821ZM79.5769 3.93375C78.8161 7.26154 77.4428 9.42005 73.6618 9.95447L40.4629 37.8531C41.996 27.8745 43.4447 18.4492 56.3348 16.6375C61.5466 16.1836 64.6422 14.8097 64.6179 12.9629C64.6013 11.7169 63.0119 10.2728 58.7157 9.96584C54.8286 9.42005 53.4476 7.26154 52.6868 3.93375C61.6131 1.22471 70.6506 1.22471 79.5769 3.93375ZM73.3581 56.5464L73.7831 57.0457L73.7726 57.0493L74.6267 58.1525L76.0963 60.0507C74.8548 60.5794 73.6359 61.0825 72.4387 61.5603C73.1433 61.2765 73.8553 60.9841 74.5747 60.6829L75.7788 60.1789L74.9787 59.1475L73.8801 57.7313L73.8791 57.73L73.2971 56.9771L73.2966 56.9764C72.2888 55.6749 71.0233 54.3013 69.2466 53.3581C69.0227 53.2392 68.7918 53.1278 68.5537 53.0245C68.796 53.1163 69.0294 53.2148 69.2543 53.319C71.0361 54.1445 72.3445 55.3557 73.3581 56.5464ZM76.253 59.9732C76.2542 59.9717 76.2549 59.971 76.255 59.9709C76.2551 59.9709 76.2545 59.9717 76.253 59.9732ZM49.6627 67.919C49.6627 67.9189 49.6635 67.9197 49.6649 67.9212C49.6633 67.9198 49.6627 67.919 49.6627 67.919ZM35.3985 51.7575L34.7231 52.8075C34.5987 52.7648 34.474 52.7224 34.349 52.6802L34.7468 52.0687C37.3136 48.123 38.115 42.9549 38.9093 37.791L38.9094 37.7908C39.7014 32.6343 40.4822 27.6405 42.8234 23.6561C44.4644 20.8633 46.9017 18.5257 50.7901 17.0581C47.2471 18.5189 44.8876 20.8281 43.2695 23.6906C41.0138 27.6809 40.2451 32.6848 39.4917 37.5897L39.4745 37.7013L39.4745 37.7014C38.6793 42.8805 37.8606 47.9298 35.3985 51.7575ZM53.7873 8.66392C54.3433 9.27855 55.0067 9.77508 55.7935 10.1556C54.505 9.63037 53.5988 8.90305 52.935 8.08395C51.8867 6.79023 51.3615 5.16943 51.0132 3.45127C51.0298 3.44382 51.05 3.43614 51.0741 3.42895L51.085 3.42569L51.0958 3.42219C51.235 3.37715 51.3743 3.33274 51.5136 3.28895L51.712 4.15662C52.1071 5.88514 52.692 7.45322 53.7873 8.66392ZM69.8995 14.1478C70.1232 14.3125 70.4071 14.472 70.7506 14.6234C70.5624 14.554 70.3854 14.4822 70.2197 14.4082C68.878 13.8094 68.6418 13.2548 68.6457 12.9768L68.6457 12.9763C68.6478 12.82 68.7469 12.4214 69.5115 11.9738C69.775 11.8195 70.1047 11.6689 70.5098 11.5314C70.2207 11.6558 69.9753 11.7942 69.78 11.9451C69.6671 12.0324 69.5481 12.1413 69.4476 12.275C69.3644 12.3856 69.2064 12.6277 69.2006 12.9638L69.2006 12.9695C69.1963 13.3433 69.3766 13.6174 69.4795 13.7499C69.6011 13.9064 69.7502 14.038 69.8995 14.1478ZM79.3355 8.08649C78.6776 8.90736 77.7818 9.63383 76.5113 10.1557C77.2902 9.77456 77.9474 9.27535 78.4985 8.6569C79.5747 7.44915 80.1568 5.88411 80.5517 4.15662L80.7498 3.29007C80.8983 3.33679 81.0468 3.38423 81.1953 3.43238L81.1958 3.43254C81.214 3.43844 81.2296 3.44451 81.243 3.45041C80.8964 5.16946 80.3723 6.79281 79.3355 8.08649Z" fill="#878BD8" stroke="#878BD8" stroke-width="2"/>
</g>
</svg>
