<svg width="116" height="94" viewBox="0 0 116 94" fill="none" xmlns="http://www.w3.org/2000/svg">
<path d="M113.889 41.5649H110.732L99.973 7.7308C101.436 6.6175 102.09 4.65451 101.429 2.83868C101.035 1.75609 100.244 0.892326 99.2001 0.406058C98.1559 -0.080211 96.9863 -0.131397 95.9037 0.261457C94.8211 0.65559 93.9574 1.44642 93.4698 2.49189C93.1704 3.13428 93.0565 3.82401 93.0898 4.51247L65.1344 14.6525C63.6513 11.9498 60.7785 10.1122 57.4834 10.1122C52.6744 10.1122 48.7625 14.0254 48.7625 18.8331C48.7625 19.4204 48.8227 19.9925 48.934 20.5478L21.003 30.7479C20.5858 30.2003 20.0547 29.7447 19.4136 29.4453C18.3707 28.9603 17.1986 28.9065 16.116 29.3019C13.8817 30.1145 12.7262 32.5945 13.5387 34.8288C13.8446 35.6682 14.3897 36.3516 15.0654 36.8391L4.43656 70.2611H1.27965C0.573285 70.2611 0 70.8331 0 71.5408V75.8724C0 79.2661 2.76149 82.0288 6.15642 82.0288H29.0226C32.4162 82.0288 35.179 79.2673 35.179 75.8724V71.5408C35.179 70.8331 34.6057 70.2611 33.8993 70.2611H30.7424L20.1123 36.8301C20.6997 36.4053 21.1834 35.8512 21.4982 35.1768C21.7976 34.5332 21.9115 33.8434 21.8783 33.1537L49.8016 22.9561C50.5835 24.4073 51.7659 25.6089 53.1978 26.4202V70.3507C45.6901 70.8357 39.6987 76.9153 39.3507 84.4589H35.504C34.7976 84.4589 34.2244 85.0309 34.2244 85.7385V92.7203C34.2244 93.428 34.7976 94 35.504 94H79.4653C80.1729 94 80.7449 93.428 80.7449 92.7203V85.7385C80.7449 85.0309 80.1729 84.4589 79.4653 84.4589H75.6173C75.2693 76.914 69.2779 70.8344 61.7702 70.3507V26.4202C64.4153 24.9204 66.2068 22.0834 66.2068 18.8318C66.2068 18.2214 66.1428 17.6264 66.0225 17.0505L93.965 6.91694C94.2798 7.33155 94.665 7.68345 95.1142 7.96114L84.4278 41.5649H81.2709C80.5632 41.5649 79.9912 42.1382 79.9912 42.8445V47.1762C79.9912 50.5698 82.7527 53.3313 86.1476 53.3313H109.014C112.407 53.3313 115.17 50.5698 115.17 47.1762V42.8445C115.169 42.1382 114.597 41.5649 113.889 41.5649ZM16.99 31.7077C17.1858 31.636 17.3892 31.6015 17.5901 31.6015C17.8435 31.6015 18.0943 31.6565 18.3311 31.7666C18.7559 31.9636 19.0771 32.3155 19.237 32.7544V32.7557C19.3957 33.1946 19.3765 33.6707 19.1782 34.0942C18.9811 34.5191 18.6292 34.8403 18.1903 35.0002C17.2843 35.3342 16.2734 34.8608 15.9432 33.9535C15.6118 33.0462 16.0827 32.0378 16.99 31.7077ZM32.6197 75.8711C32.6197 77.8546 31.006 79.4682 29.0226 79.4682H6.15642C4.17295 79.4682 2.55931 77.8546 2.55931 75.8711V72.8192H32.6197V75.8711ZM7.12256 70.2611L17.4903 37.6594C17.5261 37.6606 17.5607 37.667 17.5953 37.667C17.626 37.667 17.658 37.6594 17.6899 37.6594L28.0564 70.2611H7.12256ZM78.1856 91.442H36.7837V87.0195H40.5958H74.3735H78.1856V91.442ZM73.0747 84.4602H41.8933C42.2516 78.0043 47.6159 72.8627 54.1588 72.8627H54.4775H60.4893H60.8079C67.3521 72.8627 72.7151 78.0043 73.0747 84.4602ZM59.2109 70.3034H55.7584V27.3825C56.3163 27.4951 56.8934 27.5552 57.4846 27.5552C58.0758 27.5552 58.653 27.4951 59.2109 27.3825V70.3034ZM57.4846 24.9972C54.0872 24.9972 51.3231 22.2318 51.3231 18.8344C51.3231 15.4369 54.0872 12.6728 57.4846 12.6728C60.8834 12.6728 63.6475 15.4369 63.6475 18.8344C63.6475 22.2318 60.8821 24.9972 57.4846 24.9972ZM95.7898 3.57192C95.9882 3.14836 96.3401 2.82588 96.779 2.66593C96.9748 2.59427 97.1783 2.55972 97.3804 2.55972C97.6325 2.55972 97.8846 2.61474 98.1201 2.72479C98.5436 2.92314 98.8661 3.27376 99.0261 3.71269C99.3562 4.62124 98.8866 5.62961 97.9793 5.95976C97.5391 6.121 97.0644 6.09924 96.6382 5.90217C96.216 5.70511 95.8935 5.35448 95.7335 4.91428L95.7322 4.91172C95.5723 4.4728 95.5915 3.99677 95.7898 3.57192ZM97.5801 8.65087L108.046 41.5649H87.1138L97.5801 8.65087ZM112.61 47.1762C112.61 49.1596 110.996 50.7733 109.013 50.7733H86.1476C84.1642 50.7733 82.5505 49.1596 82.5505 47.1762V44.1242H85.3594H85.3632H85.3671H109.793H109.797H109.801H112.61V47.1762Z" fill="#878BD8"/>
</svg>
