<svg width="140" height="140" viewBox="0 0 140 140" fill="none" xmlns="http://www.w3.org/2000/svg">
<path d="M96.1377 89.4141C97.1076 89.5733 98.0888 89.6547 99.0717 89.6575C103.745 89.6575 106.375 87.7133 106.512 87.6094C106.698 87.4673 106.846 87.2811 106.942 87.0676C107.038 86.8541 107.08 86.62 107.063 86.3864C107.046 86.1529 106.972 85.9271 106.846 85.7296C106.72 85.5321 106.547 85.369 106.342 85.2551C105.642 84.8668 105.29 84.6699 105.29 81.6539V75.0614C105.29 66.325 102.875 59.7133 98.3088 55.9399C94.5736 52.8528 89.4604 51.8246 83.5268 52.9594C72.2229 55.1278 70.9486 68.0914 70.8584 72.5375H43.7881C42.6278 72.5375 41.515 72.9985 40.6945 73.8189C39.874 74.6394 39.4131 75.7522 39.4131 76.9125V106.209C39.4131 107.369 39.874 108.482 40.6945 109.302C41.515 110.123 42.6278 110.584 43.7881 110.584H57.1701V119.41H51.0068C50.6437 119.426 50.3008 119.582 50.0495 119.844C49.7983 120.107 49.658 120.456 49.658 120.82C49.658 121.183 49.7983 121.533 50.0495 121.795C50.3008 122.058 50.6437 122.213 51.0068 122.229H101.765C103.701 122.226 105.557 121.456 106.926 120.087C108.295 118.718 109.066 116.862 109.069 114.926V105.602C109.063 101.838 107.781 98.1881 105.432 95.2478C103.084 92.3074 99.8068 90.2508 96.1377 89.4141ZM87.7486 88.9957V86.1957C91.1229 85.4219 91.883 82.8871 91.9158 82.7668C92.0152 82.4166 91.9728 82.0413 91.7979 81.7221C91.6229 81.4028 91.3294 81.1652 90.9807 81.0606C90.6271 80.9542 90.246 80.9887 89.9173 81.1569C89.5885 81.3251 89.3376 81.6139 89.217 81.9629C89.1787 82.0723 88.8834 82.8078 87.7486 83.2563V76.918C87.7474 76.211 87.5749 75.5148 87.2459 74.8891C86.9168 74.2634 86.441 73.7267 85.8592 73.325C89.6709 72.3571 94.0322 71.0008 97.9424 69.177V78.0473C97.9424 84.4949 93.9529 88.9985 88.2436 88.9985H87.7404L87.7486 88.9957ZM84.0572 55.7266C89.2115 54.7422 93.4061 55.5407 96.515 58.111C100.412 61.3321 102.471 67.1946 102.471 75.0641V81.6567C102.471 83.6856 102.613 85.0883 103.25 86.1438C101.609 86.7279 99.8618 86.9562 98.1256 86.8137C99.799 84.4813 100.767 81.4653 100.767 78.05V66.8992C100.766 66.6558 100.703 66.4167 100.583 66.2051C100.462 65.9935 100.289 65.8166 100.08 65.6917C99.8714 65.5667 99.6338 65.4979 99.3904 65.492C99.1471 65.4861 98.9063 65.5432 98.6916 65.6578C89.8596 70.4047 76.7072 72.368 75.5369 72.5375H73.6721C73.7514 68.6602 74.7986 57.5012 84.0572 55.7266ZM42.2213 106.209V76.918C42.222 76.5034 42.387 76.106 42.6802 75.8128C42.9734 75.5197 43.3708 75.3547 43.7854 75.3539H83.3682C83.7828 75.3547 84.1802 75.5197 84.4733 75.8128C84.7665 76.106 84.9315 76.5034 84.9322 76.918V106.209C84.9315 106.623 84.7665 107.021 84.4733 107.314C84.1802 107.607 83.7828 107.772 83.3682 107.773H43.7799C43.3653 107.772 42.9679 107.607 42.6747 107.314C42.3816 107.021 42.2165 106.623 42.2158 106.209H42.2213ZM59.9947 110.584H67.1807V119.41H59.9811L59.9947 110.584ZM101.765 119.41H83.6717C84.0003 117.766 84.8881 116.287 86.1842 115.224C87.4803 114.16 89.1046 113.579 90.7811 113.578H98.8721C99.0571 113.578 99.2404 113.542 99.4114 113.471C99.5824 113.401 99.7378 113.297 99.8686 113.166C99.9995 113.035 100.103 112.88 100.174 112.709C100.244 112.538 100.281 112.355 100.28 112.17V109.334H106.252V114.926C106.251 116.115 105.777 117.255 104.936 118.096C104.095 118.937 102.954 119.409 101.765 119.41ZM106.249 106.515H100.278V101.218C100.278 100.845 100.129 100.487 99.8651 100.223C99.601 99.9585 99.2428 99.8102 98.8693 99.8102C98.4959 99.8102 98.1377 99.9585 97.8736 100.223C97.6095 100.487 97.4611 100.845 97.4611 101.218V110.761H90.7811C88.3587 110.765 86.0189 111.642 84.19 113.23C82.3611 114.818 81.1656 117.012 80.8225 119.41H69.9998V110.592H83.3818C84.5422 110.592 85.655 110.131 86.4754 109.31C87.2959 108.49 87.7568 107.377 87.7568 106.217V91.8149H92.4709C96.1263 91.8185 99.6309 93.2722 102.216 95.8569C104.8 98.4416 106.254 101.946 106.258 105.602L106.249 106.515Z" fill="#8084C7"/>
<path d="M92.1922 75.0612C92.1762 74.6981 92.0207 74.3552 91.7581 74.1039C91.4955 73.8527 91.1461 73.7124 90.7826 73.7124C90.4192 73.7124 90.0697 73.8527 89.8071 74.1039C89.5445 74.3552 89.389 74.6981 89.373 75.0612V76.3491C89.389 76.7122 89.5445 77.0552 89.8071 77.3064C90.0697 77.5577 90.4192 77.698 90.7826 77.698C91.1461 77.698 91.4955 77.5577 91.7581 77.3064C92.0207 77.0552 92.1762 76.7122 92.1922 76.3491V75.0612Z" fill="#8084C7"/>
<path d="M124.272 60.2054L101.675 42.3827V22.1128C101.676 21.9278 101.64 21.7445 101.569 21.5735C101.498 21.4025 101.395 21.2471 101.264 21.1163C101.133 20.9854 100.978 20.8817 100.807 20.8111C100.636 20.7404 100.452 20.7042 100.267 20.7046H87.1422C86.9572 20.7042 86.7739 20.7404 86.6029 20.8111C86.4319 20.8817 86.2765 20.9854 86.1457 21.1163C86.0148 21.2471 85.9111 21.4025 85.8405 21.5735C85.7698 21.7445 85.7336 21.9278 85.734 22.1128V29.8046L70.8727 18.0741C70.6238 17.879 70.3167 17.7729 70.0004 17.7729C69.6842 17.7729 69.377 17.879 69.1281 18.0741L15.7285 60.2054C15.4997 60.3872 15.3329 60.6357 15.2514 60.9164C15.1698 61.197 15.1774 61.4961 15.2732 61.7723C15.3689 62.0485 15.5481 62.2881 15.7859 62.4581C16.0238 62.628 16.3085 62.7199 16.6008 62.721H28.5254V119.358C28.5414 119.721 28.6969 120.064 28.9595 120.315C29.2221 120.567 29.5715 120.707 29.935 120.707C30.2984 120.707 30.6479 120.567 30.9105 120.315C31.1731 120.064 31.3286 119.721 31.3445 119.358V61.3128C31.3445 60.9386 31.1959 60.5797 30.9313 60.3151C30.6667 60.0505 30.3078 59.9019 29.9336 59.9019H20.6613L70.0004 20.9726L86.2727 33.8241C86.4795 33.9873 86.728 34.0892 86.9898 34.1183C87.2517 34.1473 87.5164 34.1023 87.754 33.9884C87.9915 33.8744 88.1923 33.6961 88.3336 33.4738C88.4749 33.2514 88.5509 32.9938 88.5531 32.7304V23.5155H98.859V43.0554C98.8602 43.2694 98.9101 43.4803 99.0048 43.6721C99.0996 43.864 99.2367 44.0318 99.4059 44.1628L119.35 59.8964H110.067C109.877 59.888 109.687 59.9183 109.508 59.9853C109.33 60.0524 109.167 60.1549 109.03 60.2866C108.892 60.4183 108.782 60.5765 108.708 60.7517C108.633 60.9269 108.594 61.1155 108.594 61.306C108.594 61.4965 108.633 61.685 108.708 61.8602C108.782 62.0354 108.892 62.1937 109.03 62.3254C109.167 62.4571 109.33 62.5596 109.508 62.6266C109.687 62.6937 109.877 62.7239 110.067 62.7155H123.4C123.692 62.7144 123.977 62.6225 124.215 62.4526C124.453 62.2826 124.632 62.043 124.728 61.7669C124.823 61.4907 124.831 61.1916 124.749 60.9109C124.668 60.6302 124.501 60.3818 124.272 60.1999V60.2054Z" fill="#8084C7"/>
<rect x="42" y="74" width="45" height="34" fill="#8084C7"/>
<path d="M73.6836 91.5633C73.6836 87.9266 69.243 85.0801 63.5664 85.0801C57.8898 85.0801 53.4492 87.9266 53.4492 91.5633C53.4492 95.2 57.8898 98.0465 63.5664 98.0465C69.243 98.0465 73.6836 95.2 73.6836 91.5633ZM56.282 91.5633C56.282 89.8297 59.2762 87.8965 63.5746 87.8965C67.873 87.8965 70.8672 89.8297 70.8672 91.5633C70.8672 93.2969 67.8594 95.2301 63.5746 95.2301C59.2898 95.2301 56.282 93.2969 56.282 91.5633Z" fill="white"/>
</svg>
