<svg width="112" height="112" viewBox="0 0 112 112" fill="none" xmlns="http://www.w3.org/2000/svg">
<g id="adaptation-svgrepo-com 1" clip-path="url(#clip0_210_583)">
<g id="transform-adaptation-change-reform-rebrand">
<path id="Vector" d="M55.125 31.5C63.8102 31.5 70.875 24.4335 70.875 15.75C70.875 7.0665 63.8102 0 55.125 0C46.4398 0 39.375 7.0665 39.375 15.75C39.375 24.4335 46.4398 31.5 55.125 31.5ZM55.125 3.5C61.8783 3.5 67.375 8.995 67.375 15.75C67.375 22.505 61.8783 28 55.125 28C48.3717 28 42.875 22.505 42.875 15.75C42.875 8.995 48.3717 3.5 55.125 3.5Z" fill="#626599"/>
<path id="Vector_2" d="M35.6355 90.1337C35.9505 89.5965 35.9558 88.9332 35.6495 88.3925L19.8995 60.3925C19.28 59.29 17.4688 59.29 16.851 60.3925L1.10102 88.3925C0.794775 88.935 0.800025 89.5965 1.11502 90.1337C1.43002 90.671 2.00402 91 2.62527 91H34.1253C34.7483 91 35.3223 90.671 35.6355 90.1337ZM5.61777 87.5L18.3753 64.82L31.1328 87.5H5.61777Z" fill="#626599"/>
<path id="Vector_3" d="M111.125 61.25C111.125 60.284 110.341 59.5 109.375 59.5H81.375C80.409 59.5 79.625 60.284 79.625 61.25V89.25C79.625 90.216 80.409 91 81.375 91H109.375C110.341 91 111.125 90.216 111.125 89.25V61.25ZM107.625 87.5H83.125V63H107.625V87.5Z" fill="#626599"/>
<path id="Vector_4" d="M55.1255 99.75C47.0002 99.75 39.12 97.426 32.3317 93.0317L30.4277 95.97C37.7847 100.733 46.3247 103.25 55.1255 103.25C64.2605 103.25 73.0717 100.553 80.6072 95.4502L78.6455 92.5522C71.691 97.2615 63.5587 99.75 55.1255 99.75Z" fill="#626599"/>
<path id="Vector_5" d="M97.0938 56.0682L100.59 55.9317C99.934 39.2227 90.183 24.2602 75.1453 16.8805L73.6035 20.0235C87.4845 26.8345 96.4865 40.6472 97.0938 56.0682Z" fill="#626599"/>
<path id="Vector_6" d="M13.258 61.1117C13.1705 60.0075 13.125 58.877 13.125 57.75C13.125 41.5992 22.1375 27.1425 36.645 20.0235L35.105 16.8805C19.3882 24.5945 9.625 40.2535 9.625 57.75C9.625 58.9697 9.67225 60.193 9.7685 61.39L13.258 61.1117Z" fill="#626599"/>
<path id="Vector_7" d="M29.3877 12.7628L31.8623 15.2373L37.1123 9.98726C37.7965 9.30301 37.7965 8.19701 37.1123 7.51276L31.8623 2.26276L29.3877 4.73726L31.6505 7.00001H20.125V10.5H31.6505L29.3877 12.7628Z" fill="#626599"/>
<path id="Vector_8" d="M104.125 40.25C104.573 40.25 105.021 40.0785 105.362 39.7373L110.612 34.4873L108.138 32.0127L105.875 34.2755V22.75H102.375V34.2755L100.112 32.0127L97.6377 34.4873L102.888 39.7373C103.229 40.0785 103.677 40.25 104.125 40.25Z" fill="#626599"/>
<path id="Vector_9" d="M17.1377 95.0128L11.8877 100.263L14.3622 102.737L16.6249 100.475V112H20.1249V100.475L22.3877 102.737L24.8622 100.263L19.6122 95.0128C18.9297 94.3285 17.8219 94.3285 17.1377 95.0128Z" fill="#626599"/>
<path id="Vector_10" d="M70.8748 56C70.8748 50.3948 67.8578 45.1675 63.0016 42.3588L61.2481 45.388C65.0263 47.5738 67.3748 51.639 67.3748 56C67.3748 61.7068 63.4443 66.5018 58.1541 67.8563L60.1911 63.784L57.0603 62.2178L53.5603 69.2178C53.2243 69.8915 53.3556 70.7053 53.8893 71.2373L59.1393 76.4873L61.6138 74.0128L58.8803 71.2793C65.7543 69.5888 70.8748 63.3885 70.8748 56Z" fill="#626599"/>
<path id="Vector_11" d="M47.2535 69.6448L49.0035 66.6155C45.2235 64.4298 42.875 60.3628 42.875 56C42.875 50.2933 46.8055 45.4983 52.0957 44.1438L50.0587 48.216L53.1895 49.7823L56.6895 42.7823C57.0255 42.1085 56.8942 41.2948 56.3605 40.7628L51.1105 35.5128L48.636 37.9873L51.3695 40.7208C44.4973 42.4113 39.375 48.6115 39.375 56C39.375 61.6088 42.3938 66.836 47.2535 69.6448Z" fill="#626599"/>
</g>
<circle id="Ellipse 125" cx="55.5" cy="15.5" r="13.5" fill="#626599"/>
</g>
<defs>
<clipPath id="clip0_210_583">
<rect width="112" height="112" fill="white"/>
</clipPath>
</defs>
</svg>
