<svg width="101" height="84" viewBox="0 0 101 84" fill="none" xmlns="http://www.w3.org/2000/svg">
<g id="heart-care-icon 1" clip-path="url(#clip0_210_598)">
<g id="Group">
<path id="Vector" d="M54.5851 70.6603H72.5938C74.0404 69.2219 75.6268 67.726 77.2378 66.2055C80.6159 63.0082 84.1421 59.6712 87.7668 55.4959C91.9094 50.7206 92.3532 49.0685 93.6108 44.3918C93.8492 43.5123 94.1122 42.526 94.4574 41.3014L96.6109 33.7315L96.6356 33.6493C97.7863 30.2795 97.8767 28.0521 97.4 26.7699C97.252 26.3754 97.063 26.1123 96.841 25.9726C96.6684 25.8575 96.4383 25.8165 96.1999 25.8411C95.641 25.8986 95.0081 26.2521 94.4328 26.8849L88.0381 42.1151C87.9805 42.2548 87.8983 42.3863 87.8079 42.5014C87.4298 43.1836 86.9202 43.8493 86.2627 44.4822L74.9117 57.1233C74.2952 57.8137 73.2349 57.8713 72.5527 57.2548C71.8623 56.6384 71.8047 55.5781 72.4212 54.8959L83.7722 42.2466C83.8215 42.1891 83.8708 42.1315 83.9284 42.0822C85.1037 40.9644 85.4736 39.7562 85.2681 38.8767C85.2024 38.6055 85.0873 38.3754 84.9229 38.2192C84.7667 38.0795 84.5612 37.9808 84.3064 37.9562C83.2955 37.8493 81.8078 38.5973 79.9913 40.7425C79.9419 40.8 79.8844 40.8575 79.8269 40.9151L75.4295 44.7945L75.4048 44.8192C70.6458 49.3233 68.5992 50.3918 64.8676 52.3397C64.0867 52.7507 63.2319 53.1945 62.1716 53.7699C61.7524 54 61.3414 54.2795 60.9387 54.5836C60.5113 54.9123 60.1003 55.2493 59.714 55.5781C57.7413 57.2384 56.7057 58.5863 56.1139 60.074C55.4974 61.6192 55.2755 63.5014 54.9714 66.0822C54.8481 67.126 54.7577 68.1534 54.6837 69.1808C54.6344 69.6822 54.6098 70.1754 54.5851 70.6603ZM50.4014 7.19179C53.7549 3.69864 56.0975 0.682205 61.2592 0.0822054C70.9417 -1.02738 79.8515 8.89316 74.961 18.6575C73.5637 21.4356 70.7362 24.748 67.5964 27.9945C64.1525 31.5617 60.3469 35.0466 57.6756 37.6932L50.4014 44.9096L44.393 39.1233C37.16 32.1534 25.3651 23.3918 24.9788 12.526C24.7076 4.91508 30.7077 0.0411095 37.6203 0.13152C43.793 0.205493 46.3821 3.27947 50.4014 7.19179ZM46.415 70.6603H28.3981C26.9515 69.2219 25.3651 67.726 23.7541 66.2055C20.3759 63.0082 16.8498 59.6712 13.2251 55.4959C9.08249 50.7206 8.63864 49.0685 7.38107 44.3918C7.14271 43.5123 6.87969 42.526 6.53447 41.3014L4.38099 33.7315L4.35633 33.6493C3.20562 30.2795 3.1152 28.0521 3.59193 26.7699C3.73988 26.3754 3.92892 26.1123 4.15085 25.9726C4.32346 25.8575 4.5536 25.8165 4.79196 25.8411C5.36732 25.8904 6.00021 26.2521 6.57557 26.8767L12.9703 42.1069C13.0278 42.2466 13.11 42.3781 13.2004 42.4932C13.5785 43.1754 14.0881 43.8411 14.7457 44.474L26.0884 57.1233C26.7049 57.8137 27.7652 57.8713 28.4474 57.2548C29.1378 56.6384 29.1954 55.5781 28.5789 54.8959L17.2279 42.2384C17.1786 42.1808 17.1293 42.1233 17.0717 42.074C15.8964 40.9562 15.5265 39.748 15.732 38.8685C15.7977 38.5973 15.9128 38.3671 16.0772 38.211C16.2334 38.0712 16.4389 37.9726 16.6937 37.948C17.7046 37.8411 19.2006 38.5891 21.0088 40.7343C21.0582 40.7918 21.1157 40.8493 21.1732 40.9069L25.5706 44.7863L25.5953 44.811C30.3543 49.3151 32.4009 50.3836 36.1325 52.3315C36.9134 52.7425 37.7682 53.1863 38.8285 53.7617C39.2477 53.9918 39.6587 54.2712 40.0614 54.5754C40.4888 54.9041 40.8998 55.2411 41.2861 55.5699C43.2588 57.2302 44.2944 58.5781 44.8862 60.0658C45.5027 61.611 45.7246 63.4932 46.0287 66.074C46.152 67.1178 46.2424 68.1452 46.3164 69.1726C46.3657 69.6822 46.3904 70.1754 46.415 70.6603ZM24.2062 71.2356C23.9514 71.5315 23.7952 71.9178 23.7952 72.337V82.3151C23.7952 83.2439 24.5514 83.9918 25.472 83.9918H48.1411C49.0699 83.9918 49.8178 83.2439 49.8178 82.3151V72.2466C49.8178 71.1781 49.7521 70.0274 49.6781 68.9589C49.6041 67.8658 49.5055 66.7808 49.3822 65.7041C49.0534 62.8849 48.8069 60.8219 48.0178 58.8411C47.2041 56.811 45.8972 55.0603 43.4725 53.0137C43.0286 52.6356 42.5765 52.2575 42.0998 51.9041C41.5984 51.526 41.056 51.1644 40.4477 50.8274C39.4614 50.2932 38.5408 49.8082 37.7024 49.3644C34.2503 47.5562 32.3598 46.5699 27.9131 42.3617C27.8803 42.3288 27.8392 42.2959 27.8063 42.2712L23.5158 38.4822C20.8938 35.4165 18.3293 34.3973 16.3649 34.611H16.3567C15.395 34.7096 14.573 35.0877 13.9155 35.663L9.58387 25.3397H9.57565C9.5099 25.1918 9.4277 25.0521 9.32085 24.9206C8.12082 23.4822 6.60023 22.6439 5.1454 22.4959C4.15085 22.3973 3.18918 22.611 2.3508 23.1534C1.55352 23.6712 0.895965 24.4767 0.484995 25.5863C-0.238312 27.5178 -0.221873 30.5178 1.19186 34.6685L3.32891 42.1891C3.64125 43.274 3.91249 44.3178 4.16729 45.2384C5.56459 50.4576 6.05775 52.3069 10.7182 57.6658C14.4087 61.9151 18.017 65.3343 21.4856 68.6137C22.3815 69.4932 23.2856 70.3562 24.2062 71.2356ZM27.4118 74.0137C27.6337 74.063 27.8638 74.063 28.094 74.0137H46.4561V80.6384H27.1487V74.0137H27.4118ZM76.7939 71.2356C77.0487 71.5315 77.2049 71.9178 77.2049 72.337V82.3151C77.2049 83.2439 76.4569 83.9918 75.5281 83.9918H52.8672C51.9384 83.9918 51.1905 83.2439 51.1905 82.3151V72.2466C51.1905 72.1891 51.1905 72.1233 51.1987 72.0658C51.2234 70.9891 51.2645 69.9452 51.3302 68.9589C51.4042 67.8658 51.5028 66.7808 51.6261 65.7041C51.9549 62.8849 52.2015 60.8219 52.9905 58.8411C53.8043 56.811 55.1111 55.0603 57.5359 53.0137C57.9797 52.6356 58.4318 52.2575 58.9085 51.9041C59.4099 51.526 59.9524 51.1644 60.5606 50.8274C61.5469 50.2932 62.4675 49.8082 63.3059 49.3644C66.758 47.5562 68.6485 46.5699 73.0952 42.3617C73.1281 42.3288 73.1692 42.2959 73.202 42.2712L77.4926 38.4822C80.1146 35.4165 82.679 34.3973 84.6434 34.611H84.6517C85.6133 34.7096 86.4353 35.0877 87.0928 35.663L91.4245 25.3397H91.4327C91.4984 25.1918 91.5806 25.0521 91.6875 24.9206C92.8875 23.4822 94.4081 22.6439 95.8629 22.4959C96.8575 22.3973 97.8191 22.611 98.6575 23.1534C99.4548 23.6712 100.112 24.4767 100.523 25.5863C101.247 27.5178 101.23 30.5178 99.8165 34.6685L97.6794 42.1891C97.3671 43.274 97.0958 44.3178 96.841 45.2384C95.4437 50.4576 94.9506 52.3069 90.2902 57.6658C86.5997 61.9151 82.9913 65.3343 79.5228 68.6137C78.6186 69.4932 77.7145 70.3562 76.7939 71.2356ZM73.5883 74.0137C73.3664 74.063 73.1363 74.063 72.9061 74.0137H54.544V80.6384H73.8514V74.0137H73.5883Z" fill="#626599"/>
</g>
</g>
<defs>
<clipPath id="clip0_210_598">
<rect width="101" height="84" fill="white"/>
</clipPath>
</defs>
</svg>
